<svg width="16" height="16" viewBox="0 0 16 16" fill="none" xmlns="http://www.w3.org/2000/svg">
<path d="M1.75 15.7746C1.3375 15.7746 0.984375 15.6277 0.690625 15.334C0.396875 15.0402 0.25 14.6871 0.25 14.2746V3.77461C0.25 3.36211 0.396875 3.00898 0.690625 2.71523C0.984375 2.42148 1.3375 2.27461 1.75 2.27461H8.44375L6.94375 3.77461H1.75V14.2746H12.25V9.06211L13.75 7.56211V14.2746C13.75 14.6871 13.6031 15.0402 13.3094 15.334C13.0156 15.6277 12.6625 15.7746 12.25 15.7746H1.75ZM10.1313 2.70586L11.2 3.75586L6.25 8.70586V9.77461H7.3L12.2687 4.80586L13.3375 5.85586L7.9375 11.2746H4.75V8.08711L10.1313 2.70586ZM13.3375 5.85586L10.1313 2.70586L12.0063 0.830859C12.3063 0.530859 12.6656 0.380859 13.0844 0.380859C13.5031 0.380859 13.8562 0.530859 14.1437 0.830859L15.1938 1.89961C15.4813 2.18711 15.625 2.53711 15.625 2.94961C15.625 3.36211 15.4813 3.71211 15.1938 3.99961L13.3375 5.85586Z" fill="#7F8793"/>
</svg>
